<?xml version="1.0" encoding="utf-8"?>
<!-- Generator: Adobe Illustrator 16.0.0, SVG Export Plug-In . SVG Version: 6.00 Build 0)  -->
<!DOCTYPE svg PUBLIC "-//W3C//DTD SVG 1.1//EN" "http://www.w3.org/Graphics/SVG/1.1/DTD/svg11.dtd">
<svg version="1.1" xmlns="http://www.w3.org/2000/svg" xmlns:xlink="http://www.w3.org/1999/xlink" x="0px" y="0px" width="300px"
	 height="300px" viewBox="0 0 300 300" enable-background="new 0 0 300 300" xml:space="preserve">
<g id="Layer_1">
	<path fill="#ED1C24" d="M291.463,100H8.498C3.001,115.591,0,132.359,0,149.831c0,17.583,3.039,34.47,8.603,50.169h282.754
		c5.589-15.699,8.643-32.586,8.643-50.169C300,132.359,296.984,115.591,291.463,100z"/>
</g>
<g id="Layer_3">
	<path fill="#00A651" d="M149.831,300c65.166,0,120.814-41.816,141.526-100H8.603C29.226,258.184,84.665,300,149.831,300z"/>
</g>
<g id="Layer_2">
	<path fill="#FFF200" d="M149.831,0C84.553,0,29.036,41.75,8.498,100h282.965C270.836,41.75,215.108,0,149.831,0z"/>
</g>
</svg>
