<?xml version="1.0" encoding="utf-8"?>
<!-- Generator: Adobe Illustrator 16.0.0, SVG Export Plug-In . SVG Version: 6.00 Build 0)  -->
<!DOCTYPE svg PUBLIC "-//W3C//DTD SVG 1.1//EN" "http://www.w3.org/Graphics/SVG/1.1/DTD/svg11.dtd">
<svg version="1.1" id="Layer_1" xmlns="http://www.w3.org/2000/svg" xmlns:xlink="http://www.w3.org/1999/xlink" x="0px" y="0px"
	 width="1606.923px" height="1606.921px" viewBox="0 0 1606.923 1606.921" enable-background="new 0 0 1606.923 1606.921"
	 xml:space="preserve">
<g>
	<polygon fill="#ED1C24" points="803.46,803.46 836.818,401.73 870.175,0 803.46,0 736.744,0 770.102,401.73 	"/>
	<polygon fill="#ED1C24" points="803.459,803.461 770.101,1205.192 736.744,1606.921 803.459,1606.921 870.175,1606.921 
		836.818,1205.192 	"/>
</g>
<g>
	<polygon fill="#ED1C24" points="803.46,803.46 731.707,406.785 659.952,10.11 595.509,27.377 531.066,44.645 667.264,424.052 	"/>
	<polygon fill="#ED1C24" points="803.459,803.461 875.214,1200.137 946.968,1596.811 1011.41,1579.543 1075.855,1562.276 
		939.658,1182.87 	"/>
</g>
<g>
	<polygon fill="#ED1C24" points="803.46,803.46 631.485,438.872 459.508,74.285 401.729,107.643 343.952,141.001 573.707,472.23 	
		"/>
	<polygon fill="#ED1C24" points="803.459,803.461 975.437,1168.049 1147.414,1532.635 1205.191,1499.278 1262.97,1465.918 
		1033.214,1134.69 	"/>
</g>
<g>
	<polygon fill="#ED1C24" points="803.46,803.46 542.983,495.805 282.504,188.152 235.328,235.328 188.153,282.503 495.808,542.981 	
		"/>
	<polygon fill="#ED1C24" points="803.459,803.461 1063.939,1111.115 1324.417,1418.768 1371.593,1371.592 1418.769,1324.417 
		1111.115,1063.939 	"/>
</g>
<g>
	<polygon fill="#ED1C24" points="803.46,803.46 472.231,573.704 141.002,343.952 107.644,401.73 74.286,459.507 438.874,631.483 	
		"/>
	<polygon fill="#ED1C24" points="803.459,803.461 1134.691,1033.214 1465.921,1262.967 1499.279,1205.19 1532.636,1147.411 
		1168.05,975.436 	"/>
</g>
<g>
	<polygon fill="#ED1C24" points="803.46,803.46 424.053,667.261 44.646,531.065 27.378,595.509 10.11,659.951 406.786,731.705 	"/>
	<polygon fill="#ED1C24" points="803.459,803.461 1182.869,939.657 1562.279,1075.852 1579.544,1011.411 1596.812,946.965 
		1200.138,875.213 	"/>
</g>
<g>
	<polygon fill="#ED1C24" points="803.46,803.46 401.729,770.099 0.001,736.742 0.001,803.459 0,870.174 401.731,836.817 	"/>
	<polygon fill="#ED1C24" points="803.459,803.461 1205.191,836.818 1606.923,870.174 1606.921,803.459 1606.921,736.741 
		1205.193,770.1 	"/>
</g>
<g>
	<polygon fill="#ED1C24" points="803.46,803.46 406.784,875.211 10.11,946.965 27.378,1011.41 44.645,1075.852 424.054,939.655 	"/>
	<polygon fill="#ED1C24" points="803.459,803.461 1200.136,731.705 1596.812,659.949 1579.544,595.508 1562.277,531.063 
		1182.871,667.26 	"/>
</g>
<g>
	<polygon fill="#ED1C24" points="803.46,803.46 438.871,975.434 74.285,1147.41 107.644,1205.188 141.001,1262.965 
		472.231,1033.211 	"/>
	<polygon fill="#ED1C24" points="803.459,803.461 1168.048,631.482 1532.636,459.504 1499.279,401.728 1465.919,343.949 
		1134.691,573.702 	"/>
</g>
<g>
	<polygon fill="#ED1C24" points="803.46,803.46 495.805,1063.936 188.152,1324.415 235.328,1371.59 282.503,1418.766 
		542.982,1111.112 	"/>
	<polygon fill="#ED1C24" points="803.459,803.461 1111.115,542.979 1418.769,282.499 1371.593,235.325 1324.417,188.149 
		1063.939,495.802 	"/>
</g>
<g>
	<polygon fill="#ED1C24" points="803.46,803.46 573.704,1134.688 343.951,1465.917 401.729,1499.274 459.507,1532.633 
		631.484,1168.045 	"/>
	<polygon fill="#ED1C24" points="803.459,803.461 1033.216,472.228 1262.968,140.996 1205.191,107.64 1147.412,74.282 
		975.437,438.868 	"/>
</g>
<g>
	<polygon fill="#ED1C24" points="803.46,803.46 667.262,1182.866 531.065,1562.273 595.509,1579.541 659.951,1596.808 
		731.706,1200.131 	"/>
	<polygon fill="#ED1C24" points="803.459,803.461 939.658,424.049 1075.853,44.64 1011.41,27.374 946.966,10.107 875.212,406.78 	
		"/>
</g>
</svg>
